# xmcd CD database file
#
# Track frame offsets:
#	150
#	10120
#	30024
#	50479
#	70331
#	92310
#	124550
#	145779
#	167864
#	189738
#	209815
#	222982
#	246514
#	266094
#	284703
#	304415
#	324887
#	332839
#
# Disc length: 4722 seconds
#
# Revision: 2
# Processed by: cddbd v1.4PL0 Copyright (c) Steve Scherf et al.
# Submitted via: CDex 1.50Beta3
#
DISCID=12127012
DTITLE=Aaliyah - One In A Million
DYEAR=1900
DGENRE=
TTITLE0=Beets For Da Streets (intro)
TTITLE1=Hot Like Fire
TTITLE2=One In A Million
TTITLE3=A Girl Like You
TTITLE4=If Your Girl Only Knew
TTITLE5=Choosey Lover
TTITLE6=Got To Give It Up
TTITLE7=4 Page Letter
TTITLE8=Everything's Gonna Be Alright
TTITLE9=Giving You More
TTITLE10=I Gotcha Back
TTITLE11=Never Givin' Up
TTITLE12=Heartbroken
TTITLE13=Vever Comin' Back
TTITLE14=Ladies In Da House
TTITLE15=The One I Gave My Heart To
TTITLE16=Came To Give Love (outro)
TTITLE17=Turn The Page (bonus track)
EXTD=
EXTT0=
EXTT1=
EXTT2=
EXTT3=
EXTT4=
EXTT5=
EXTT6=
EXTT7=
EXTT8=
EXTT9=
EXTT10=
EXTT11=
EXTT12=
EXTT13=
EXTT14=
EXTT15=
EXTT16=
EXTT17=
PLAYORDER=
